<svg width="226" height="80" viewBox="0 0 226 80" fill="none" xmlns="http://www.w3.org/2000/svg">
<path d="M5.20612 37.0621C8.08139 37.0621 10.4122 34.6725 10.4122 31.7249C10.4122 28.7772 8.08139 26.3877 5.20612 26.3877C2.33085 26.3877 0 28.7772 0 31.7249C0 34.6725 2.33085 37.0621 5.20612 37.0621Z" fill="#F99D1E"/>
<path d="M40.7217 10.6744C43.597 10.6744 45.9279 8.28483 45.9279 5.33718C45.9279 2.38954 43.597 0 40.7217 0C37.8465 0 35.5156 2.38954 35.5156 5.33718C35.5156 8.28483 37.8465 10.6744 40.7217 10.6744Z" fill="#EB1A76"/>
<path d="M18.7882 80.0003C21.6634 80.0003 23.9943 77.6108 23.9943 74.6631C23.9943 71.7155 21.6634 69.3259 18.7882 69.3259C15.9129 69.3259 13.582 71.7155 13.582 74.6631C13.582 77.6108 15.9129 80.0003 18.7882 80.0003Z" fill="#3D76BB"/>
<path d="M62.7667 79.9227C65.6419 79.9227 67.9728 77.5331 67.9728 74.5855C67.9728 71.6378 65.6419 69.2483 62.7667 69.2483C59.8914 69.2483 57.5605 71.6378 57.5605 74.5855C57.5605 77.5331 59.8914 79.9227 62.7667 79.9227Z" fill="white"/>
<path d="M76.2628 37.1197C79.138 37.1197 81.4689 34.7301 81.4689 31.7825C81.4689 28.8349 79.138 26.4453 76.2628 26.4453C73.3875 26.4453 71.0566 28.8349 71.0566 31.7825C71.0566 34.7301 73.3875 37.1197 76.2628 37.1197Z" fill="#7AC582"/>
<path d="M27.6834 44.7841L23.4716 48.9769C23.4247 49.025 23.3871 49.0827 23.3683 49.15C23.1432 48.5345 22.7868 47.9672 22.3084 47.4863L13.9692 39.168C11.2489 36.4561 12.7497 31.7248 16.5113 31.1574L28.0117 29.4361C28.7058 29.3303 29.3625 29.0706 29.9253 28.6667C29.8784 28.7437 29.8596 28.8302 29.8784 28.9264L30.854 34.8598C31.4543 38.5045 30.2724 42.2165 27.6834 44.7841Z" fill="#F99D1E"/>
<path d="M40.4287 62.2768C39.8002 62.3153 39.1718 62.4884 38.5996 62.7961L28.3092 68.3448C24.9511 70.1624 21.0206 67.2389 21.6585 63.4019L23.619 51.6505C23.7316 50.9581 23.6941 50.2657 23.5253 49.6118C23.5722 49.6599 23.6284 49.6791 23.6941 49.6888L29.4912 50.5639C33.0651 51.112 36.1419 53.4104 37.7272 56.7281L40.3068 62.1326C40.3349 62.1903 40.3818 62.2479 40.4287 62.2768Z" fill="#3D76BB"/>
<path d="M51.2942 28.5034C51.2098 28.4938 51.1347 28.5034 51.0503 28.5419L45.8536 31.3307C42.6548 33.0424 38.8464 33.0328 35.6571 31.3018L30.4697 28.4938C30.3852 28.4457 30.2915 28.4361 30.207 28.4553C30.7323 28.0418 31.1638 27.5033 31.464 26.8686L36.6045 16.175C38.2836 12.6842 43.1426 12.6842 44.8217 16.175L49.9716 26.859C50.2905 27.5129 50.7408 28.0707 51.2942 28.5034Z" fill="#EB1A76"/>
<path d="M53.1594 68.3348L42.8691 62.7957C42.25 62.4687 41.584 62.286 40.918 62.2668C40.9649 62.2475 41.0118 62.1898 41.0399 62.1321L43.6476 56.7469C45.2517 53.4388 48.3472 51.15 51.9118 50.6211L57.7183 49.7749C57.7933 49.7653 57.859 49.7364 57.9153 49.6787C57.7558 50.3134 57.7277 50.9769 57.8402 51.6309L59.8101 63.3823C60.448 67.2193 56.527 70.1427 53.1594 68.3348Z" fill="white"/>
<path d="M67.4738 39.1486L59.1534 47.4766C58.6468 47.9766 58.2716 48.5825 58.0465 49.246C58.0277 49.1787 57.9996 49.121 57.9433 49.0633L53.7596 44.8512C51.18 42.274 50.0168 38.5524 50.6359 34.9078L51.6396 28.984C51.6584 28.8782 51.6396 28.782 51.5834 28.7051C52.1274 29.0801 52.7559 29.3302 53.4219 29.4263L64.9317 31.1381C68.6932 31.6958 70.1941 36.4272 67.4738 39.1486Z" fill="#7AC582"/>
<path d="M58.0466 49.2465C57.9903 49.3812 57.9528 49.5254 57.9153 49.6793C57.859 49.737 57.7933 49.7658 57.7183 49.7754L51.9118 50.6217C48.3472 51.1506 45.2517 53.4393 43.6477 56.7474L41.0399 62.1327C41.0118 62.1904 40.9649 62.2481 40.918 62.2673C40.7585 62.2481 40.5896 62.2673 40.4302 62.2769C40.3833 62.2481 40.3364 62.1904 40.3082 62.1327L37.7286 56.7282C36.1433 53.4105 33.0666 51.1121 29.4926 50.564L23.6955 49.6889C23.6299 49.6793 23.5736 49.66 23.5267 49.612C23.4798 49.4581 23.4329 49.3042 23.3672 49.1504C23.3859 49.0831 23.4235 49.0254 23.4704 48.9773L27.6822 44.7845C30.2712 42.2168 31.4531 38.5049 30.8528 34.8602L29.8772 28.9268C29.8584 28.8306 29.8772 28.7441 29.9241 28.6671C30.018 28.6094 30.1117 28.5421 30.2056 28.4556C30.29 28.4363 30.3837 28.446 30.4682 28.494L35.6556 31.3021C38.8449 33.033 42.6534 33.0427 45.8521 31.3309L51.0488 28.5421C51.1332 28.5037 51.2083 28.494 51.2927 28.5037C51.3865 28.5806 51.4803 28.6479 51.5835 28.7056C51.6398 28.7825 51.6585 28.8787 51.6398 28.9845L50.6361 34.9083C50.017 38.5529 51.1802 42.2745 53.7598 44.8518L57.9435 49.0638C57.9997 49.1215 58.0279 49.1792 58.0466 49.2465Z" fill="#EFEFEF"/>
<path d="M105.175 36.8215H105.156C104.49 36.8215 104.152 36.4753 104.152 35.7925V14.665C104.152 13.9822 104.49 13.636 105.156 13.636H108.946C109.565 13.636 109.959 13.9149 110.137 14.463L115.249 26.1952H115.55L120.615 14.463C120.793 13.9149 121.178 13.636 121.769 13.636H125.408C126.093 13.636 126.44 13.9822 126.45 14.665V35.7925C126.45 36.4753 126.112 36.8215 125.427 36.8215H123.166C122.482 36.8215 122.135 36.4753 122.125 35.7925V22.1466L122.341 20.5407H121.994L117.163 31.1381C117.013 31.7151 116.628 32.0036 116.028 32.0036H114.574C113.974 32.0036 113.589 31.7151 113.42 31.1381L108.589 20.5407H108.261L108.458 22.1466V35.7925C108.458 36.4753 108.12 36.8215 107.454 36.8215H105.175Z" fill="#EFEFEF"/>
<path d="M137.669 36.8215L137.687 36.86C137.003 36.86 136.656 36.5138 136.646 35.831V27.58L129.873 14.8862C129.686 14.5111 129.667 14.213 129.827 13.9919C129.986 13.7707 130.249 13.6553 130.615 13.6553H133.316C133.898 13.6553 134.292 13.9245 134.489 14.4534L138.71 22.8006H139.019L143.203 14.4534C143.419 13.9245 143.813 13.6553 144.376 13.6553H146.946C147.331 13.6553 147.593 13.761 147.734 13.9726C147.875 14.1842 147.856 14.4823 147.687 14.8477L140.914 27.4742V35.7925C140.914 36.4753 140.577 36.8215 139.892 36.8215H137.669Z" fill="#EFEFEF"/>
<path d="M175.47 35.5713L175.452 35.5905C175.63 35.9367 175.658 36.2349 175.555 36.4657C175.433 36.7061 175.189 36.8215 174.832 36.8215H171.896C171.334 36.8215 170.93 36.5714 170.677 36.0618L165.199 26.9837L163.004 29.7245V35.7925C163.004 36.4753 162.666 36.8215 162 36.8215H159.721C159.055 36.8215 158.717 36.4753 158.717 35.7925V14.665C158.717 13.9822 159.055 13.636 159.721 13.636H162C162.666 13.636 163.004 13.9822 163.004 14.665V23.6083H163.266L170.602 14.3284C170.902 13.8668 171.305 13.636 171.821 13.636H174.514C174.898 13.636 175.142 13.761 175.254 14.011C175.376 14.2611 175.311 14.5592 175.058 14.9246L168.069 23.5122L175.47 35.5809V35.5713Z" fill="#EFEFEF"/>
<path d="M179.972 36.8215C179.306 36.8215 178.969 36.4753 178.969 35.7925V14.665C178.969 13.9822 179.306 13.636 179.972 13.636H182.252C182.918 13.636 183.256 13.9822 183.256 14.665V35.7925C183.256 36.4753 182.918 36.8215 182.252 36.8215H179.972Z" fill="#EFEFEF"/>
<path d="M196.174 13.6262C198.838 13.6262 200.958 14.3955 202.553 15.9246C204.157 17.4728 204.964 19.5115 204.964 22.0599V28.4165C204.964 30.936 204.157 32.9747 202.553 34.523C200.958 36.052 198.829 36.8213 196.174 36.8213H188.773C188.107 36.8213 187.77 36.4751 187.77 35.7924V14.6648C187.77 13.982 188.107 13.6358 188.773 13.6358H196.174V13.6262ZM200.696 28.2626V22.1946C200.696 20.8098 200.283 19.7135 199.457 18.8961C198.632 18.0787 197.516 17.6748 196.09 17.6748H192.066V32.7728H196.09C197.506 32.7728 198.632 32.3689 199.457 31.5515C200.283 30.734 200.696 29.6378 200.696 28.253V28.2626Z" fill="#EFEFEF"/>
<path d="M216.577 37.2448L216.493 37.2832C214.045 37.2832 212.065 36.7351 210.555 35.6292C209.045 34.5329 208.173 32.9846 207.938 30.9652C207.919 30.6382 208.004 30.3882 208.201 30.2055C208.407 30.0131 208.67 29.917 208.979 29.917H211.531C212.084 29.917 212.431 30.2247 212.572 30.8305C212.91 32.6673 214.232 33.5809 216.53 33.5713C217.628 33.5713 218.557 33.3212 219.317 32.8115C220.076 32.3019 220.452 31.6383 220.452 30.8209C220.452 30.0805 220.151 29.4458 219.542 28.9265C218.923 28.3976 218.172 27.9937 217.262 27.7244C216.418 27.4744 215.424 27.1282 214.298 26.6762C213.172 26.2338 212.187 25.7915 211.334 25.3395C210.433 24.8683 209.673 24.1567 209.054 23.2142C208.454 22.2814 208.144 21.1467 208.144 19.8196C208.144 17.7905 208.904 16.1845 210.424 15.0017C211.943 13.8189 213.923 13.2227 216.38 13.2227C218.838 13.2227 220.583 13.7323 221.99 14.7613C223.406 15.7999 224.232 17.2424 224.466 19.0887C224.532 19.7908 224.204 20.1466 223.481 20.1562H220.996C220.48 20.1562 220.133 19.8677 219.954 19.2907C219.617 17.7136 218.407 16.9154 216.343 16.8866C215.358 16.8866 214.504 17.1174 213.801 17.5789C213.107 18.0405 212.76 18.6752 212.76 19.4926C212.76 20.3485 213.182 21.0409 214.026 21.5698C214.87 22.0987 215.893 22.5411 217.093 22.8873C218.369 23.2623 219.57 23.6662 220.686 24.1182C221.887 24.5894 222.9 25.3491 223.735 26.3973C224.579 27.4551 225.001 28.763 225.001 30.3209C225.001 32.4173 224.241 34.1002 222.712 35.3599C221.183 36.6197 219.138 37.2544 216.577 37.2544V37.2448Z" fill="#EFEFEF"/>
<path d="M111.421 69.1718L111.337 69.2102C108.888 69.2102 106.909 68.6621 105.399 67.5562C103.889 66.4599 103.016 64.9116 102.782 62.8922C102.763 62.5652 102.848 62.3152 103.045 62.1325C103.251 61.9401 103.514 61.844 103.823 61.844H106.375C106.928 61.844 107.275 62.1517 107.416 62.7575C107.754 64.5943 109.076 65.5079 111.374 65.4983C112.472 65.4983 113.4 65.2482 114.16 64.7386C114.92 64.2289 115.295 63.5653 115.295 62.7479C115.295 62.0075 114.995 61.3728 114.385 60.8535C113.766 60.3246 113.016 59.9207 112.106 59.6514C111.262 59.4014 110.267 59.0552 109.142 58.6032C108.016 58.1608 107.031 57.7185 106.178 57.2665C105.277 56.7953 104.517 56.0837 103.898 55.1412C103.298 54.2084 102.988 53.0737 102.988 51.7466C102.988 49.7175 103.748 48.1116 105.268 46.9287C106.787 45.7459 108.767 45.1497 111.224 45.1497C113.682 45.1497 115.427 45.6593 116.834 46.6883C118.25 47.7269 119.076 49.1694 119.31 51.0158C119.376 51.7178 119.048 52.0736 118.325 52.0832H115.839C115.324 52.0832 114.976 51.7947 114.798 51.2177C114.461 49.6406 113.25 48.8424 111.187 48.8136C110.202 48.8136 109.348 49.0444 108.645 49.5059C107.95 49.9675 107.603 50.6022 107.603 51.4196C107.603 52.2755 108.025 52.9679 108.87 53.4968C109.714 54.0257 110.736 54.4681 111.937 54.8143C113.213 55.1893 114.414 55.5932 115.53 56.0452C116.731 56.5164 117.744 57.2761 118.579 58.3243C119.423 59.3821 119.845 60.69 119.845 62.2479C119.845 64.3443 119.085 66.0272 117.556 67.2869C116.027 68.5467 113.982 69.1814 111.421 69.1814V69.1718Z" fill="#EFEFEF"/>
<path d="M131.711 69.1716L131.673 69.2582C129.028 69.2582 126.898 68.4985 125.294 66.9791C123.7 65.4596 122.902 63.4498 122.902 60.9591V53.4871C122.902 50.9964 123.709 48.9865 125.313 47.4671C126.908 45.9477 129.037 45.188 131.692 45.188C134.346 45.188 136.504 45.8996 138.07 47.3132C139.637 48.7269 140.425 50.7656 140.425 53.4005C140.425 54.016 140.125 54.3333 139.534 54.3333H137.048C136.541 54.3333 136.241 54.0352 136.157 53.439C136.082 52.1119 135.65 51.0733 134.872 50.3425C134.093 49.6116 133.033 49.2462 131.701 49.2462C130.369 49.2462 129.244 49.6308 128.418 50.4098C127.593 51.1887 127.18 52.2369 127.18 53.5544V60.8245C127.18 62.1419 127.593 63.1902 128.418 63.9691C129.244 64.748 130.341 65.1327 131.72 65.1327C133.099 65.1327 134.112 64.7673 134.891 64.0364C135.669 63.3055 136.082 62.2766 136.157 60.9399C136.241 60.3436 136.541 60.0455 137.048 60.0455H139.534C140.106 60.0455 140.406 60.3821 140.425 61.0457C140.425 63.6614 139.637 65.6712 138.052 67.0848C136.476 68.4792 134.365 69.1813 131.701 69.1813L131.711 69.1716Z" fill="#EFEFEF"/>
<path d="M159.7 45.5537H159.681C160.366 45.5537 160.713 45.8999 160.722 46.5827V67.7102C160.722 68.393 160.384 68.7392 159.7 68.7392H157.476C156.81 68.7392 156.473 68.393 156.473 67.7102V59.0553H148.396V67.7102C148.396 68.393 148.059 68.7392 147.393 68.7392H145.113C144.447 68.7392 144.109 68.393 144.109 67.7102V46.5827C144.109 45.8999 144.447 45.5537 145.113 45.5537H147.393C148.059 45.5537 148.396 45.8999 148.396 46.5827V55.0356H156.473V46.5827C156.473 45.8999 156.81 45.5537 157.476 45.5537H159.7Z" fill="#EFEFEF"/>
<path d="M173.633 69.1721H173.596C170.904 69.1721 168.737 68.3932 167.095 66.8353C165.472 65.2774 164.656 63.2387 164.656 60.6999V53.5645C164.656 51.0257 165.472 48.987 167.114 47.4291C168.737 45.8712 170.913 45.0923 173.624 45.0923C176.335 45.0923 178.464 45.8712 180.106 47.4291C181.729 48.987 182.545 51.0257 182.545 53.5645V60.6999C182.545 63.2387 181.729 65.2774 180.106 66.8353C178.464 68.3932 176.307 69.1721 173.624 69.1721H173.633ZM173.596 65.1139V65.1524C174.993 65.1524 176.119 64.7485 176.973 63.9311C177.826 63.1137 178.258 62.027 178.258 60.6519V53.7183C178.258 52.3432 177.826 51.2469 176.973 50.4391C176.119 49.6313 174.984 49.2178 173.596 49.2178C172.207 49.2178 171.044 49.6217 170.181 50.4391C169.318 51.2565 168.896 52.3335 168.896 53.6991V60.6326C168.896 61.9982 169.328 63.0848 170.181 63.8926C171.035 64.7004 172.179 65.1139 173.596 65.1139Z" fill="#EFEFEF"/>
<path d="M194.85 69.1721H194.813C192.12 69.1721 189.954 68.3932 188.312 66.8353C186.689 65.2774 185.873 63.2387 185.873 60.6999V53.5645C185.873 51.0257 186.689 48.987 188.331 47.4291C189.954 45.8712 192.13 45.0923 194.841 45.0923C197.552 45.0923 199.681 45.8712 201.323 47.4291C202.945 48.987 203.761 51.0257 203.761 53.5645V60.6999C203.761 63.2387 202.945 65.2774 201.323 66.8353C199.681 68.3932 197.523 69.1721 194.841 69.1721H194.85ZM194.813 65.1139V65.1524C196.21 65.1524 197.336 64.7485 198.19 63.9311C199.043 63.1137 199.475 62.027 199.475 60.6519V53.7183C199.475 52.3432 199.043 51.2469 198.19 50.4391C197.336 49.6313 196.201 49.2178 194.813 49.2178C193.424 49.2178 192.261 49.6217 191.398 50.4391C190.535 51.2565 190.113 52.3335 190.113 53.6991V60.6326C190.113 61.9982 190.545 63.0848 191.398 63.8926C192.252 64.7004 193.396 65.1139 194.813 65.1139Z" fill="#EFEFEF"/>
<path d="M220.365 64.6905C221.031 64.6905 221.368 65.0367 221.368 65.7387V67.7197C221.368 68.4025 221.031 68.7487 220.365 68.7487H208.705C208.039 68.7487 207.701 68.4025 207.701 67.7197V46.5922C207.701 45.9094 208.039 45.5632 208.705 45.5632H210.984C211.65 45.5632 211.988 45.9094 211.988 46.5922V64.7001H220.365V64.6905Z" fill="#EFEFEF"/>
</svg>
